<?xml version="1.0" encoding="UTF-8" standalone="no"?>
<!-- Created with Inkscape (http://www.inkscape.org/) -->

<svg
   version="1.1"
   id="svg2"
   width="345.77332"
   height="491.51999"
   viewBox="0 0 345.77332 491.51999"
   sodipodi:docname="clipboard.eps"
   xmlns:inkscape="http://www.inkscape.org/namespaces/inkscape"
   xmlns:sodipodi="http://sodipodi.sourceforge.net/DTD/sodipodi-0.dtd"
   xmlns="http://www.w3.org/2000/svg"
   xmlns:svg="http://www.w3.org/2000/svg">
  <defs
     id="defs6" />
  <sodipodi:namedview
     id="namedview4"
     pagecolor="#ffffff"
     bordercolor="#000000"
     borderopacity="0.25"
     inkscape:showpageshadow="2"
     inkscape:pageopacity="0.0"
     inkscape:pagecheckerboard="0"
     inkscape:deskcolor="#d1d1d1" />
  <g
     id="g8"
     inkscape:groupmode="layer"
     inkscape:label="ink_ext_XXXXXX"
     transform="matrix(1.3333333,0,0,-1.3333333,0,491.52)">
    <g
       id="g10"
       transform="scale(0.1)">
      <path
         d="M 548.898,3030.72 H 235.879 c -33.125,0 -63.285,-13.59 -85.184,-35.49 -21.902,-21.9 -35.496,-52.06 -35.496,-85.18 V 235.879 c 0,-33.129 13.594,-63.277 35.496,-85.188 21.899,-21.89 52.059,-35.492 85.184,-35.492 H 2357.37 c 33.13,0 63.29,13.602 85.19,35.492 21.9,21.911 35.5,52.059 35.5,85.188 V 2910.05 c 0,33.12 -13.6,63.28 -35.5,85.18 -21.9,21.9 -52.06,35.49 -85.19,35.49 h -313 v -148.21 c 0,-43.69 -20.88,-82.77 -54.51,-110.53 -30.5,-25.18 -71.84,-40.8 -116.65,-40.8 H 720.039 c -44.801,0 -86.137,15.62 -116.641,40.8 -33.628,27.76 -54.5,66.84 -54.5,110.53 z m -313.019,115.2 h 370.617 c 31.809,0 57.602,-25.79 57.602,-57.6 v -205.81 c 0,-7.87 4.675,-15.66 12.203,-21.88 10.656,-8.79 26.097,-14.25 43.738,-14.25 H 1873.21 c 17.65,0 33.09,5.46 43.75,14.25 7.52,6.22 12.2,14.01 12.2,21.88 v 205.81 c 0,31.81 25.79,57.6 57.6,57.6 h 370.61 c 64.93,0 123.92,-26.52 166.64,-69.24 42.72,-42.72 69.24,-101.71 69.24,-166.63 V 235.879 c 0,-64.918 -26.51,-123.91 -69.24,-166.629 C 2481.29,26.5195 2422.3,0 2357.37,0 H 235.879 C 170.949,0 111.965,26.5195 69.2422,69.25 26.5195,111.969 0,170.961 0,235.879 V 2910.05 c 0,64.92 26.5234,123.91 69.2422,166.63 42.7228,42.72 101.7108,69.24 166.6368,69.24 v 0"
         style="fill:#ffffff;fill-opacity:1;fill-rule:nonzero;stroke:none"
         id="path12" />
      <path
         d="M 1019.01,3342.02 H 720.039 c -17.637,0 -33.074,-5.47 -43.734,-14.27 -7.532,-6.21 -12.207,-14 -12.207,-21.87 v -423.37 c 0,-7.87 4.675,-15.66 12.203,-21.88 10.656,-8.79 26.097,-14.25 43.738,-14.25 H 1873.21 c 17.65,0 33.09,5.46 43.75,14.25 7.52,6.22 12.2,14.01 12.2,21.88 v 423.37 c 0,7.87 -4.68,15.66 -12.2,21.88 -10.66,8.79 -26.1,14.26 -43.75,14.26 h -298.96 c -31.82,0 -57.6,25.78 -57.6,57.59 0,45.39 -23,87.05 -60.17,117.74 -40.3,33.27 -96.77,53.85 -159.85,53.85 -63.09,0 -119.55,-20.58 -159.86,-53.85 -37.16,-30.69 -60.16,-72.35 -60.16,-117.74 0,-31.81 -25.79,-57.59 -57.6,-57.59 z m -298.971,115.19 h 248.106 c 13.746,57.85 47.815,109.24 95.725,148.79 60.17,49.67 142.52,80.4 232.76,80.4 90.24,0 172.59,-30.73 232.76,-80.4 47.91,-39.55 81.98,-90.94 95.72,-148.79 h 248.1 c 44.81,0 86.15,-15.63 116.65,-40.8 33.63,-27.77 54.51,-66.84 54.51,-110.53 v -423.37 c 0,-43.69 -20.88,-82.77 -54.51,-110.53 -30.49,-25.18 -71.83,-40.8 -116.65,-40.8 H 720.039 c -44.801,0 -86.137,15.62 -116.641,40.8 -33.628,27.76 -54.5,66.84 -54.5,110.53 v 423.37 c 0,43.69 20.872,82.76 54.5,110.53 30.5,25.18 71.836,40.8 116.641,40.8 v 0"
         style="fill:#ffffff;fill-opacity:1;fill-rule:nonzero;stroke:none"
         id="path14" />
      <path
         d="m 497.832,2209.21 c -31.812,0 -57.598,-50.38 -57.598,-112.5 0,-62.13 25.786,-112.5 57.598,-112.5 H 2095.42 c 31.82,0 57.6,50.37 57.6,112.5 0,62.12 -25.78,112.5 -57.6,112.5 H 497.832"
         style="fill:#ffffff;fill-opacity:1;fill-rule:nonzero;stroke:none"
         id="path16" />
      <path
         d="m 497.832,1550.38 c -31.812,0 -57.598,-50.38 -57.598,-112.5 0,-62.14 25.786,-112.5 57.598,-112.5 H 2095.42 c 31.82,0 57.6,50.36 57.6,112.5 0,62.12 -25.78,112.5 -57.6,112.5 H 497.832"
         style="fill:#ffffff;fill-opacity:1;fill-rule:nonzero;stroke:none"
         id="path18" />
      <path
         d="m 497.832,855.871 c -31.812,0 -57.598,-50.371 -57.598,-112.5 0,-62.121 25.786,-112.5 57.598,-112.5 H 2095.42 c 31.82,0 57.6,50.379 57.6,112.5 0,62.129 -25.78,112.5 -57.6,112.5 H 497.832"
         style="fill:#ffffff;fill-opacity:1;fill-rule:nonzero;stroke:none"
         id="path20" />
    </g>
  </g>
</svg>
